HIERARCHY
ROOT Hips
{
 OFFSET 0.000000 0.000000 0.000000
 CHANNELS 6 Xposition Yposition Zposition Yrotation Xrotation Zrotation
 JOINT Chest
 {
  OFFSET 0.000000 9.585900 0.002600
  CHANNELS 3 Yrotation Xrotation Zrotation
  JOINT Chest2
  {
   OFFSET 0.000000 9.601200 -0.005300
   CHANNELS 3 Yrotation Xrotation Zrotation
   JOINT Chest3
   {
    OFFSET 0.000000 9.561800 0.000000
    CHANNELS 3 Yrotation Xrotation Zrotation
    JOINT Chest4
    {
     OFFSET 0.000000 9.552100 0.000000
     CHANNELS 3 Yrotation Xrotation Zrotation
     JOINT Neck
     {
      OFFSET 0.000000 14.453000 0.000000
      CHANNELS 3 Yrotation Xrotation Zrotation
      JOINT Head
      {
       OFFSET 0.000000 8.936500 -0.011300
       CHANNELS 3 Yrotation Xrotation Zrotation
       End Site
       {
        OFFSET 0.000000 17.073600 -0.006000
       }
      }
     }
     JOINT RightCollar
     {
      OFFSET -2.921100 9.558500 0.000000
      CHANNELS 3 Yrotation Xrotation Zrotation
      JOINT RightShoulder
      {
       OFFSET -13.519700 0.000000 0.000000
       CHANNELS 3 Yrotation Xrotation Zrotation
       JOINT RightElbow
       {
        OFFSET 0.000000 -29.696600 0.000000
        CHANNELS 3 Yrotation Xrotation Zrotation
        JOINT RightWrist
        {
         OFFSET 0.000000 -24.004700 0.000000
         CHANNELS 3 Yrotation Xrotation Zrotation
         End Site
         {
          OFFSET 0.000000 -17.728500 0.000000
         }
        }
       }
      }
     }
     JOINT LeftCollar
     {
      OFFSET 2.921100 9.558500 0.000000
      CHANNELS 3 Yrotation Xrotation Zrotation
      JOINT LeftShoulder
      {
       OFFSET 13.519700 0.000000 0.000000
       CHANNELS 3 Yrotation Xrotation Zrotation
       JOINT LeftElbow
       {
        OFFSET 0.000000 -29.696600 0.000000
        CHANNELS 3 Yrotation Xrotation Zrotation
        JOINT LeftWrist
        {
         OFFSET 0.000000 -24.004700 0.000000
         CHANNELS 3 Yrotation Xrotation Zrotation
         End Site
         {
          OFFSET 0.000000 -17.728500 0.000000
         }
        }
       }
      }
     }
    }
   }
  }
 }
 JOINT RightHip
 {
  OFFSET -7.771700 -0.012900 -0.001300
  CHANNELS 3 Yrotation Xrotation Zrotation
  JOINT RightKnee
  {
   OFFSET 0.000000 -40.869800 0.001200
   CHANNELS 3 Yrotation Xrotation Zrotation
   JOINT RightAnkle
   {
    OFFSET 0.000000 -39.717900 0.002100
    CHANNELS 3 Yrotation Xrotation Zrotation
    JOINT RightToe
    {
     OFFSET 0.000000 -4.965400 11.033500
     CHANNELS 3 Yrotation Xrotation Zrotation
     End Site
     {
      OFFSET 0.000000 -1.423100 5.872300
     }
    }
   }
  }
 }
 JOINT LeftHip
 {
  OFFSET 7.771700 -0.012900 -0.001300
  CHANNELS 3 Yrotation Xrotation Zrotation
  JOINT LeftKnee
  {
   OFFSET 0.000000 -40.869800 0.001200
   CHANNELS 3 Yrotation Xrotation Zrotation
   JOINT LeftAnkle
   {
    OFFSET 0.000000 -39.717900 0.002100
    CHANNELS 3 Yrotation Xrotation Zrotation
    JOINT LeftToe
    {
     OFFSET 0.000000 -4.965400 11.033500
     CHANNELS 3 Yrotation Xrotation Zrotation
     End Site
     {
      OFFSET 0.000000 -1.423100 5.872300
     }
    }
   }
  }
 }
}
MOTION
Frames: 9
Frame Time: 0.008333
-66.207995 63.272469 12.009135 164.237761 -52.871261 -2.563201 7.949461 26.816098 5.072866 1.286661 4.828300 0.447443 2.004260 7.594566 0.713860 6.309377 21.763385 2.946105 1.128798 17.147684 0.564820 1.870673 -3.925410 0.665524 7.640222 4.051318 5.907000 11.515715 -17.583901 -19.262610 -86.901385 -62.802556 130.307609 14.144768 7.730957 6.585196 -10.599568 2.183528 -0.641704 -4.550387 -13.757325 17.844317 -63.003496 -84.603917 38.227958 1.041183 -8.016557 -3.435265 -4.640547 -7.470369 9.912455 -28.005864 73.862630 -25.683259 1.330210 -13.103140 -2.412610 -0.377151 0.770377 -0.147289 -3.473502 -14.045936 0.036063 12.975784 62.713409 6.764396 -3.378581 -7.342018 0.240441 -0.283146 -0.625219 -0.150547
-66.207700 63.275141 12.009456 164.217949 -52.886298 -2.548700 7.945668 26.823932 5.052076 1.286725 4.829399 0.448626 2.008289 7.601003 0.711800 6.308014 21.768405 2.937344 1.148116 17.128278 0.564759 1.932325 -3.979988 0.665351 7.617586 4.031385 5.879634 11.477794 -17.644596 -19.218860 -86.909714 -62.705332 130.394793 14.149599 7.702695 6.778700 -10.594087 2.254250 -0.633986 -4.323926 -13.708713 17.735507 -67.000386 -84.981965 42.376297 1.314864 -8.015542 -4.291045 -4.628843 -7.450329 9.915636 -27.989078 73.848333 -25.674874 1.339626 -13.104106 -2.414901 -0.389092 0.775767 -0.147300 -3.500890 -14.023957 0.031665 13.010790 62.704412 6.778549 -3.356829 -7.361631 0.238157 -0.296232 -0.611735 -0.157987
-66.206721 63.278380 12.009785 164.199379 -52.903895 -2.538886 7.944512 26.834750 5.035663 1.270048 4.829766 0.425135 2.027927 7.609328 0.726632 6.327611 21.765437 2.951597 1.149326 17.111502 0.551587 1.995016 -4.044018 0.666144 7.575894 4.020089 5.839276 11.440490 -17.713834 -19.177252 -86.936778 -62.608786 130.502118 14.161515 7.642773 7.003412 -10.611948 2.323237 -0.642106 -4.076114 -13.649417 17.622335 -71.906826 -85.340323 47.467556 1.526187 -7.960718 -5.109608 -4.619614 -7.428598 9.921669 -27.976098 73.840189 -25.667572 1.343021 -13.104828 -2.414189 -0.394826 0.771667 -0.157667 -3.501758 -14.001947 0.034656 13.000222 62.703032 6.770422 -3.357665 -7.374308 0.236227 -0.289014 -0.607426 -0.161322
-66.205967 63.281027 12.010729 164.191760 -52.915650 -2.537228 7.944379 26.842987 5.030085 1.265439 4.831073 0.417873 2.018819 7.616463 0.710344 6.333216 21.771627 2.944099 1.180861 17.089710 0.568950 2.047994 -4.112668 0.660835 7.552561 3.996789 5.815460 11.423318 -17.776799 -19.139723 -87.013091 -62.516306 130.637509 14.177376 7.552850 7.256912 -10.635883 2.441281 -0.641632 -3.786311 -13.635764 17.514731 -78.001946 -85.630716 53.780693 1.659118 -7.884236 -5.872819 -4.618222 -7.413872 9.928379 -27.961402 73.834278 -25.658953 1.340029 -13.101231 -2.414855 -0.394841 0.769912 -0.157753 -3.510894 -13.984544 0.033238 13.014116 62.698002 6.776558 -3.327030 -7.396816 0.250257 -0.282270 -0.611105 -0.161580
-66.206142 63.284313 12.011076 164.170559 -52.931824 -2.518029 7.948262 26.856378 5.016124 1.259296 4.834839 0.405045 2.018025 7.621892 0.704333 6.300747 21.791067 2.894223 1.244116 17.037122 0.594764 2.110472 -4.178713 0.669476 7.558032 3.957634 5.814749 11.408925 -17.847406 -19.105565 -87.115299 -62.421503 130.789237 14.190236 7.454437 7.541922 -10.624374 2.511162 -0.609253 -3.483574 -13.569302 17.392827 -85.229125 -85.808616 61.255341 1.710092 -7.810302 -6.565453 -4.606012 -7.397040 9.926464 -27.948111 73.830530 -25.647878 1.333121 -13.097561 -2.418711 -0.390192 0.767272 -0.155486 -3.546427 -13.961822 0.024003 13.081306 62.687863 6.812160 -3.301457 -7.415354 0.249680 -0.294245 -0.606550 -0.166523
-66.205940 63.288086 12.011391 164.156570 -52.950699 -2.506278 7.942676 26.874034 4.992656 1.257620 4.835160 0.393018 2.027264 7.628370 0.712979 6.275372 21.799505 2.850615 1.290139 16.985880 0.607348 2.178067 -4.251248 0.681013 7.544183 3.935246 5.806606 11.393462 -17.930123 -19.072829 -87.078514 -62.352652 130.808766 14.228340 7.286639 7.849039 -10.633966 2.557650 -0.587741 -3.166551 -13.456405 17.267784 -93.128802 -85.839898 69.423271 1.703763 -7.746433 -7.181742 -4.598225 -7.376670 9.925686 -27.922962 73.827863 -25.625133 1.324025 -13.090688 -2.421535 -0.386678 0.755590 -0.160083 -3.555026 -13.937068 0.015763 13.064905 62.681869 6.801940 -3.290504 -7.428434 0.239647 -0.293450 -0.607480 -0.164422
-66.205439 63.289884 12.013645 164.155650 -52.953467 -2.509391 7.935511 26.874626 4.974824 1.261286 4.834420 0.397314 2.032205 7.632724 0.719483 6.238889 21.782063 2.792070 1.333381 16.947439 0.621734 2.253194 -4.322599 0.692273 7.523528 3.952820 5.800961 11.376959 -18.033135 -19.041426 -87.278783 -62.242870 131.061041 14.226999 7.256587 8.185642 -10.656011 2.617935 -0.580642 -2.831031 -13.315780 17.153573 -100.949387 -85.719263 77.517560 1.672414 -7.690230 -7.729446 -4.595996 -7.372036 9.932226 -27.900752 73.822371 -25.601569 1.310482 -13.086499 -2.424540 -0.379000 0.753651 -0.159269 -3.561277 -13.931404 0.019397 13.065374 62.678454 6.801824 -3.292502 -7.440713 0.244797 -0.299082 -0.608634 -0.166766
-66.205509 63.291985 12.015760 164.151464 -52.957761 -2.505922 7.923199 26.868732 4.941224 1.268283 4.838707 0.408307 2.020250 7.623721 0.694247 6.225103 21.753920 2.763560 1.382460 16.911681 0.637516 2.338696 -4.389016 0.704145 7.540981 3.993278 5.828872 11.368650 -18.090669 -19.026219 -87.572461 -62.153236 131.376534 14.236693 7.273813 8.515183 -10.678844 2.688552 -0.586242 -2.475809 -13.152360 17.054366 -108.111407 -85.479632 84.957613 1.627925 -7.629720 -8.236761 -4.587668 -7.367480 9.931863 -27.891878 73.817073 -25.585353 1.302251 -13.082752 -2.428158 -0.372262 0.753040 -0.157830 -3.581651 -13.923109 0.014064 13.076902 62.671174 6.806058 -3.274188 -7.452729 0.245393 -0.303735 -0.601755 -0.174093
-66.205428 63.294682 12.017813 164.128718 -52.965702 -2.487837 7.913229 26.852002 4.900428 1.266988 4.829801 0.402501 1.992654 7.587416 0.655716 6.282305 21.793666 2.809209 1.402664 16.858456 0.627733 2.431515 -4.471856 0.709095 7.485988 4.027368 5.783553 11.339258 -18.248520 -18.994654 -87.589130 -62.029834 131.471933 14.276775 7.298832 8.825219 -10.730927 2.727468 -0.620690 -2.109026 -12.977411 16.967770 -114.459626 -85.175830 91.595084 1.553240 -7.544375 -8.732343 -4.573773 -7.360387 9.931467 -27.886027 73.814722 -25.578086 1.300565 -13.081101 -2.428427 -0.370542 0.752974 -0.159971 -3.587291 -13.911241 0.006907 13.106956 62.661767 6.834376 -3.268692 -7.455937 0.237835 -0.300836 -0.603803 -0.176531
